<?xml version="1.0" encoding="UTF-8"?>
<svg width="128px" height="114px" viewBox="0 0 128 114" version="1.1" xmlns="http://www.w3.org/2000/svg" xmlns:xlink="http://www.w3.org/1999/xlink">
    <title>icon_step4</title>
    <g id="Landing" stroke="none" stroke-width="1" fill="none" fill-rule="evenodd">
        <g id="Landing_SSU_una-sucursal_cuisine" transform="translate(-996.000000, -1832.000000)">
            <g id="Group-18" transform="translate(223.000000, 1832.000000)">
                <g id="icon_step4" transform="translate(773.000000, 0.000000)">
                    <g id="Group-20" transform="translate(18.000000, 6.000000)" fill-rule="nonzero">
                        <path d="M41.4,60 L41.4,46.5 L51.3,46.5 L51.3,37.7 L41.4,37.7 L41.4,0 L32.8,0 L0.2,39.2 L0.2,46.5 L31.5,46.5 L31.5,60 L41.4,60 Z M31.5,37.7 L12.7,37.7 L12.7,37.3 C12.7,37.3 13.7,36.5 14.5,35.6 L31.5,14.7 L31.5,37.7 Z" id="4" fill="#FF8CFF"></path>
                        <g id="step-4" transform="translate(18.000000, 29.000000)" fill="#3B3B3B">
                            <rect id="Rectangle" x="21" y="10.5925926" width="5" height="3"></rect>
                            <rect id="Rectangle" x="21" y="14.5925926" width="5" height="3"></rect>
                            <rect id="Rectangle" x="21" y="19.5925926" width="5" height="3"></rect>
                            <path d="M43,11.5925926 L40.5,11.5925926 C40.4983641,12.9726263 39.3800337,14.0909567 38,14.0925926 L38,16.5925926 C40.7601387,16.5894927 42.9969001,14.3527313 43,11.5925926 L43,11.5925926 Z" id="Path"></path>
                            <path d="M49,17.5925926 L49,15.0925926 C47.6199663,15.0909567 46.5016359,13.9726263 46.5,12.5925926 L44,12.5925926 C44.0030999,15.3527313 46.2398613,17.5894927 49,17.5925926 L49,17.5925926 Z" id="Path"></path>
                            <path d="M62.4708754,69.8163213 C60.4230049,70.1855501 58.3341706,70.2780904 56.2612711,70.0914215 L35.1693597,68.1893343 C34.465067,68.1256789 33.9357471,67.5238981 33.9676317,66.8230964 C33.9995163,66.1222948 34.5813318,65.5702567 35.2885419,65.5697906 L51.5546361,65.5697906 C53.2295243,65.567137 54.5861769,64.2201312 54.5872617,62.5587292 L54.5872617,62.5306025 C54.5859029,61.8983218 54.3791129,61.2833169 53.9975677,60.7768198 L51.2201375,57.1050065 C51.0440749,56.8713744 50.9486766,56.5876424 50.9481109,56.2959501 L50.9481109,56.0895874 C50.94808,55.5438717 51.279466,55.0518771 51.787733,54.8430366 C52.2959999,54.6341961 52.8810442,54.749641 53.2700408,55.1355356 L58.5816846,60.4042538 C58.8091847,60.6299102 59.1177374,60.7566765 59.4394628,60.7566649 L72.7830156,60.7566649 L72.7830156,58.350102 L59.9418172,58.350102 L54.9857487,53.4336444 C54.8610052,53.3102176 54.7278629,53.1954352 54.5872617,53.0901075 L54.5872617,25.8615029 C54.5872617,25.1969489 54.0441606,24.6582215 53.3742115,24.6582215 L52.1611612,24.6582215 L52.1611612,21.0483772 L53.9807366,21.0483772 C56.3255586,21.0483771 58.2264124,19.162831 58.2264124,16.8368921 C58.2264124,14.5109532 56.3255586,12.6254071 53.9807366,12.625407 L53.8553375,12.625407 C55.1143422,11.1289316 55.0101637,8.92581857 53.6154702,7.55281545 C52.2207767,6.17981234 49.9990511,6.09319404 48.5000239,7.3533798 C48.2621992,4.88369493 46.1708773,2.9979306 43.6698094,2.9979306 C41.1687415,2.9979306 39.0774196,4.88369493 38.8395949,7.3533798 C37.3405677,6.09319404 35.1188421,6.17981234 33.7241486,7.55281545 C32.329455,8.92581857 32.2252766,11.1289316 33.4842812,12.625407 L33.3588822,12.625407 C32.7293369,12.6248341 32.1076343,12.7639505 31.5393068,13.0325674 L31.5393068,7.81228126 C31.5393068,3.82495731 28.2807002,0.592592593 24.2610052,0.592592593 C20.2413103,0.592592593 16.9827036,3.82495731 16.9827036,7.81228126 L16.9827036,24.6582215 L15.7696534,24.6582215 C15.0997042,24.6582215 14.5566031,25.1969489 14.5566031,25.8615029 L14.5566031,31.1526323 L8.04267486,36.6910359 L0,36.6910359 L0,39.0975988 L8.49135182,39.0975988 C8.78090435,39.0975847 9.06090153,38.9948318 9.28074428,38.8079088 L16.3115836,32.8300066 C17.0343819,32.2158118 17.9547026,31.8781319 18.9064497,31.8779102 C19.109639,31.8779278 19.2928091,31.9993597 19.3705438,32.1855795 C19.4482785,32.3717994 19.4052685,32.5861323 19.2615702,32.7286301 L14.9118752,37.043447 C14.5649266,37.3875838 14.4611345,37.9051521 14.6488994,38.3547992 C14.8366642,38.8044463 15.2790066,39.0976166 15.7696534,39.0975988 L28.5066811,39.0975988 C28.8416557,39.0975988 29.1132063,39.3669626 29.1132063,39.6992396 C29.1132063,40.0315166 28.8416557,40.3008803 28.5066811,40.3008803 L19.4088042,40.3008803 C18.738855,40.3008803 18.1957539,40.8396077 18.1957539,41.5041617 C18.1957539,42.1687157 18.738855,42.7074432 19.4088042,42.7074432 L32.1458319,42.7074432 C32.4808065,42.7074432 32.752357,42.9768069 32.752357,43.3090839 C32.752357,43.6413609 32.4808065,43.9107246 32.1458319,43.9107246 L19.4088042,43.9107246 C18.738855,43.9107246 18.1957539,44.4494521 18.1957539,45.1140061 C18.1957539,45.7785601 18.738855,46.3172875 19.4088042,46.3172875 L29.7197314,46.3172875 C30.054706,46.3172875 30.3262565,46.5866512 30.3262565,46.9189282 C30.3262565,47.2512052 30.054706,47.520569 29.7197314,47.520569 L19.4088042,47.520569 C18.738855,47.520569 18.1957539,48.0592964 18.1957539,48.7238504 C18.1957539,49.3884044 18.738855,49.9271318 19.4088042,49.9271318 L25.3982398,49.9271318 C25.436822,49.9290214 25.4678029,49.9593838 25.4701738,49.9976296 C25.4725447,50.0358755 25.4455474,50.0697744 25.4074893,50.0763387 L17.0776248,51.1092055 L8.82494065,48.7701767 C8.7164574,48.739421 8.60417891,48.7238286 8.49135182,48.7238504 L0,48.7238504 L0,51.1304133 L8.32152479,51.1304133 L14.5566031,52.8975825 L14.5566031,64.3665092 L14.5594841,64.3665092 C14.5571702,64.6858414 14.6838336,64.9928014 14.9112038,65.2188776 C15.1385741,65.4449537 15.4477241,65.5713266 15.7696534,65.5697906 L31.7819168,65.5697906 C31.3680389,66.6565164 31.4900821,67.8726808 32.1118065,68.8571499 C32.7335308,69.8416191 33.7834506,70.4811992 34.9497976,70.5859702 L56.0415574,72.4886589 C56.8091149,72.5580482 57.577835,72.5925926 58.3477175,72.5925926 C59.8760075,72.5925926 61.4011944,72.4561072 62.9048441,72.1849808 L73,70.3642655 L72.5660313,67.9965085 L62.4708754,69.8163213 Z M29.1132063,19.8450957 C29.1139583,19.180851 29.6566191,18.6425603 30.3262565,18.6418143 L32.752357,18.6418143 C35.4309066,18.6447983 37.6015498,20.7979611 37.6045581,23.4549401 C37.603806,24.1191848 37.0611452,24.6574755 36.3915078,24.6582215 L33.9654073,24.6582215 C31.2868577,24.6552374 29.1162145,22.5020747 29.1132063,19.8450957 Z M33.3588822,15.0319699 L36.3915078,15.0319699 C36.8821546,15.0319877 37.324497,14.7388173 37.5122618,14.2891703 C37.7000267,13.8395232 37.5962346,13.3219549 37.249286,12.9778181 L35.4297106,11.1728959 C35.0860935,10.8320461 34.9518958,10.3352465 35.0776683,9.86963695 C35.2034409,9.40402735 35.5700759,9.04034486 36.0394656,8.91558515 C36.5088552,8.79082544 37.009688,8.92394249 37.353305,9.26479238 L39.1728804,11.0697145 C39.5198111,11.4138691 40.0415813,11.5168254 40.4948788,11.3305726 C40.9481763,11.1443199 41.2437267,10.7055397 41.2437089,10.2188442 L41.2437089,7.81228126 C41.2437089,6.48317328 42.3299111,5.40571837 43.6698094,5.40571837 C45.0097077,5.40571837 46.0959099,6.48317328 46.0959099,7.81228126 L46.0959099,10.2188442 C46.095892,10.7055397 46.3914424,11.1443199 46.8447399,11.3305726 C47.2980374,11.5168254 47.8198076,11.4138691 48.1667383,11.0697145 L49.9863137,9.26479238 C50.3299308,8.92394249 50.8307635,8.79082544 51.3001532,8.91558515 C51.7695428,9.04034486 52.1361779,9.40402735 52.2619504,9.86963695 C52.387723,10.3352465 52.2535252,10.8320461 51.9099082,11.1728959 L50.0903328,12.9778181 C49.7433842,13.3219549 49.6395921,13.8395232 49.8273569,14.2891703 C50.0151217,14.7388173 50.4574642,15.0319877 50.9481109,15.0319699 L53.9807366,15.0319699 C54.9856603,15.0319699 55.800312,15.8400611 55.800312,16.8368921 C55.800312,17.8337231 54.9856603,18.6418143 53.9807366,18.6418143 L50.9481109,18.6418143 C50.2781618,18.6418143 49.7350607,19.1805417 49.7350607,19.8450957 L49.7350607,20.4859935 C46.790527,17.8627522 42.2706142,18.0614159 39.5715191,20.9327117 C38.5070871,18.1105383 35.7900391,16.2388676 32.752357,16.2352514 L31.6454487,16.2352514 C31.902608,15.5150983 32.5886844,15.0332921 33.3588822,15.0319699 L33.3588822,15.0319699 Z M49.5814582,24.6582215 L40.1842611,24.6582215 C40.736747,22.5322426 42.6695562,21.0465505 44.8828596,21.0465505 C47.0961631,21.0465505 49.0289723,22.5322426 49.5814582,24.6582215 Z M19.4088042,7.81228126 C19.4088042,5.1540653 21.5812086,2.99915548 24.2610052,2.99915548 C26.9408019,2.99915548 29.1132063,5.1540653 29.1132063,7.81228126 L29.1132063,16.4422158 C27.660495,16.9535501 26.6890926,18.3160516 26.6871057,19.8450957 C26.6858286,21.6222569 27.3481436,23.3369135 28.5462569,24.6582215 L19.4088042,24.6582215 L19.4088042,7.81228126 Z M21.8349047,27.0647844 L24.2610052,27.0647844 L24.2610052,36.6910359 L21.8349047,36.6910359 L21.8349047,27.0647844 Z M18.9064497,29.4713473 C18.2538595,29.4716319 17.6051375,29.5707407 16.9827036,29.7652488 L16.9827036,27.0647844 L19.4088042,27.0647844 L19.4088042,29.5172224 C19.2429906,29.4876558 19.0749183,29.4723074 18.9064497,29.4713473 Z M19.4088042,35.9862138 L19.4088042,36.6910359 L18.6981083,36.6910359 L19.4088042,35.9862138 Z M21.8349047,52.9446609 L24.2610052,52.6438405 L24.2610052,61.4613365 L21.8349047,59.0547737 L21.8349047,52.9446609 Z M17.1331219,53.5276507 L19.4088042,53.2454812 L19.4088042,59.0549241 L16.9827036,61.461487 L16.9827036,53.5369762 C17.0329889,53.5369467 17.0832242,53.5338323 17.1331219,53.5276507 L17.1331219,53.5276507 Z M18.6981083,63.1632277 L20.6218544,61.2549738 L22.5456005,63.1632277 L18.6981083,63.1632277 Z M26.6871057,52.125527 C27.4383823,51.6772004 27.8985132,50.8717238 27.900156,50.0020361 C27.900156,49.9769176 27.900156,49.9519495 27.8989429,49.926831 L29.7197314,49.926831 C30.6387237,49.9263718 31.5079848,49.5127752 32.0835541,48.8021181 C32.6591235,48.0914611 32.8789702,47.1603334 32.6813936,46.2700587 C34.2275323,45.9950396 35.3060593,44.5944279 35.1668106,43.0424119 C35.0275619,41.4903958 33.7166322,40.30073 32.1458319,40.3008803 L31.4786543,40.3008803 C31.6599889,39.4158122 31.4311303,38.4967474 30.8552116,37.7972199 C30.279293,37.0976925 29.4171745,36.6916251 28.5066811,36.6910359 L26.6871057,36.6910359 L26.6871057,27.0647844 L52.1611612,27.0647844 L52.1611612,52.337455 C50.1301807,52.4181027 48.5247742,54.0733509 48.5220104,56.0895874 L48.5220104,56.2959501 C48.5237514,57.1084908 48.7896306,57.8988082 49.2801668,58.5495459 L52.0574454,62.2210584 C52.1248049,62.3104525 52.1613334,62.4189972 52.1616166,62.5306025 L52.1616166,62.5587292 C52.1620356,62.8918176 51.8904276,63.1623152 51.5546361,63.1632277 L26.6871057,63.1632277 L26.6871057,52.125527 Z" id="Shape"></path>
                        </g>
                    </g>
                    <rect id="Rectangle-Copy-4" x="0" y="0" width="128" height="114"></rect>
                </g>
            </g>
        </g>
    </g>
</svg>