<svg xmlns="http://www.w3.org/2000/svg" width="60" height="52" viewBox="0 0 60 52">
    <g fill="none" fill-rule="evenodd">
        <circle cx="38" cy="30" r="22" fill="#FF8CFF"/>
        <g fill="#3B3B3B" fill-rule="nonzero">
            <path d="M45.25 14.546c-1.05-1.042-2.456-1.658-3.937-1.732V2.55c0-1.413-1.148-2.55-2.576-2.55H12.126c-.022 0-.033.01-.054.01-.064 0-.14.022-.204.043-.032.01-.054.01-.086.021-.086.032-.171.085-.247.15l-11.16 10.2c-.075.074-.139.159-.182.254-.01.032-.021.053-.032.085-.032.075-.043.16-.054.234 0 .021-.01.032-.01.053v37.4c0 1.413 1.148 2.55 2.575 2.55h36.055c1.427 0 2.575-1.137 2.575-2.55V26.86l3.938-3.9c1.127-1.115 1.76-2.634 1.76-4.207 0-1.572-.622-3.092-1.75-4.207zM11.268 2.794V9.35c0 .468-.386.85-.858.85H3.166l8.101-7.406zM39.596 28.56v19.89c0 .467-.386.85-.859.85H2.683c-.472 0-.859-.383-.859-.85V11.9h8.585c1.427 0 2.575-1.137 2.575-2.55V1.7h25.753c.473 0 .859.383.859.85v10.423c-.075.021-.15.043-.236.064-.987.276-1.889.797-2.608 1.52L14.905 36.188c-.022.032-.054.063-.075.095-.011.011-.011.022-.022.032-.075.106-.118.223-.14.34 0 0 0 .01-.01.01l-.01.054-1.203 8.362c-.032.244.043.489.204.68.161.191.397.297.644.297.043 0 .086 0 .118-.01l8.499-1.2c.01 0 .032-.011.043-.022.043-.01.096-.021.14-.043.02-.01.031-.02.053-.02.043-.022.075-.033.118-.065.021-.01.032-.02.043-.042.032-.021.054-.043.086-.064L39.596 28.56zM21.493 43.329l-4.764.67.6-.596c.323-.33.323-.86-.01-1.19-.332-.33-.869-.33-1.202-.01l-.6.594.675-4.717 3.53 1.753 1.342 2.646.43.85zm.72-2.38l-.805-1.594 10.483-10.38c.226-.213.312-.532.236-.83-.075-.297-.31-.53-.611-.605-.3-.074-.623.01-.837.234l-10.495 10.38-3.219-1.604 16.761-16.596 6.063 6.014-16.761 16.596-.816-1.615zm18.789-16.182l-6.063-6.014 1.212-1.2 6.063 6.003-1.212 1.21zm3.036-3.007l-.6.595-6.074-6.003.6-.606c.516-.51 1.149-.882 1.847-1.084.236-.063.482-.116.73-.138 1.813-.19 3.54.765 4.334 2.391.794 1.626.451 3.57-.837 4.845z"/>
            <path d="M35.54 24.161c-.333-.33-.88-.33-1.213 0l-1.212 1.2c-.226.213-.312.532-.236.83.075.297.31.53.611.605.3.075.623-.01.837-.233l1.213-1.201c.343-.33.343-.86 0-1.2zM6.975 23.8h18.027c.472 0 .859-.383.859-.85 0-.467-.387-.85-.859-.85H6.975c-.472 0-.859.383-.859.85 0 .468.387.85.859.85zM6.975 28.9h12.877c.472 0 .858-.383.858-.85 0-.468-.386-.85-.858-.85H6.975c-.472 0-.859.383-.859.85 0 .467.387.85.859.85zM15.56 33.15c0-.468-.387-.85-.86-.85H6.976c-.472 0-.859.383-.859.85 0 .468.387.85.859.85H14.7c.472 0 .858-.383.858-.85zM13.842 18.7h16.311c.472 0 .858-.383.858-.85 0-.468-.386-.85-.858-.85h-16.31c-.473 0-.859.383-.859.85 0 .467.386.85.858.85zM6.975 18.7h3.434c.472 0 .858-.383.858-.85 0-.468-.386-.85-.858-.85H6.975c-.472 0-.859.383-.859.85 0 .467.387.85.859.85z"/>
        </g>
    </g>
</svg>
