<svg xmlns="http://www.w3.org/2000/svg" width="63" height="51" viewBox="0 0 63 51">
    <g fill="none" fill-rule="evenodd">
        <circle cx="41" cy="27" r="22" fill="#FF8CFF"/>
        <g fill-rule="nonzero">
            <path fill="#3B3B3B" d="M50.833 24.99l-3.91-5.228.775-6.493c.042-.372-.16-.733-.51-.882l-6.014-2.56-2.572-6.015c-.149-.35-.51-.552-.882-.51l-6.482.776L26.01.168c-.297-.224-.723-.224-1.02 0l-5.228 3.91-6.493-.776c-.372-.042-.733.16-.882.51l-2.56 6.014-6.015 2.561c-.35.15-.552.51-.51.882l.776 6.493-3.91 5.228c-.224.297-.224.723 0 1.02l3.91 5.228-.776 6.493c-.042.372.16.733.51.882l6.014 2.56 2.561 6.015c.15.35.51.552.882.51l6.493-.776 5.228 3.91c.297.224.723.224 1.02 0l5.228-3.91 6.493.776c.372.042.733-.16.882-.51l2.56-6.014 6.015-2.561c.35-.15.552-.51.51-.882l-.776-6.493 3.91-5.228c.224-.297.224-.723 0-1.02zM5.066 37.295L5.81 31.1c.021-.213-.032-.436-.16-.616L1.91 25.5l3.74-4.994c.128-.17.192-.393.16-.617l-.245-2.04h7.184v22.103H11.09c-.074-.086-.18-.16-.287-.202l-5.738-2.455zm40.284-6.8c-.128.17-.192.392-.16.616l.744 6.195-5.738 2.444c-.202.085-.361.244-.446.446l-2.444 5.738-6.195-.744c-.213-.021-.436.032-.606.16L25.5 49.09l-4.994-3.74c-.149-.107-.33-.17-.51-.17-.032 0-.064 0-.107.01l-6.195.744-1.817-4.282h2.572v-1.7H35.7c1.254 0 2.412-.691 2.997-1.796.595-1.105.52-2.444-.17-3.496 1.052-.372 1.86-1.233 2.157-2.306.297-1.073.042-2.232-.68-3.082.233-.148.457-.319.648-.51.744-.733 1.105-1.774.967-2.816-.128-1.041-.744-1.955-1.647-2.476.584-.68.882-1.562.807-2.454-.17-1.817-1.71-3.188-3.538-3.156H28.9v-6.8c0-2.35-1.902-4.251-4.25-4.251h-1.7c-.468 0-.85.382-.85.85v3.4c0 3.751-3.05 6.8-6.801 6.8h-.85v-1.7H5.364l-.298-2.443 5.738-2.444c.202-.085.361-.245.446-.447l2.444-5.738 6.195.744c.213.021.436-.032.606-.16L25.5 1.91l4.994 3.74c.17.128.393.192.606.16l6.195-.744 2.444 5.738c.085.202.244.361.446.446l5.738 2.444-.743 6.195c-.022.213.031.436.159.617l3.74 4.994-3.73 4.994zm-17.3-10.946h9.202c.925-.02 1.722.66 1.839 1.573.042.489-.138.978-.489 1.328-.319.32-.754.5-1.2.5h-1.7c-.468 0-.851.382-.851.85 0 .467.383.85.85.85h2.402c.924-.021 1.721.659 1.838 1.573.042.488-.138.977-.489 1.328-.319.319-.754.5-1.2.5h-2.55c-.468 0-.851.382-.851.85 0 .467.383.85.85.85h1.7c.935 0 1.7.765 1.7 1.7 0 .935-.765 1.7-1.7 1.7h-2.55c-.468 0-.85.382-.85.85 0 .467.382.85.85.85h.85c.935 0 1.7.765 1.7 1.7 0 .935-.765 1.7-1.7 1.7H14.45V19.55h.85c4.697 0 8.5-3.804 8.5-8.5v-2.55h.85c1.414 0 2.551 1.136 2.551 2.55v7.65c0 .468.383.85.85.85z"/>
        </g>
    </g>
</svg>
