<?xml version="1.0" encoding="UTF-8"?>
<svg width="128px" height="114px" viewBox="0 0 128 114" version="1.1" xmlns="http://www.w3.org/2000/svg" xmlns:xlink="http://www.w3.org/1999/xlink">
    <title>icon_step2</title>
    <g id="Landing" stroke="none" stroke-width="1" fill="none" fill-rule="evenodd">
        <g id="Landing_SSU_una-sucursal_cuisine" transform="translate(-496.000000, -1832.000000)">
            <g id="Group-18" transform="translate(223.000000, 1832.000000)">
                <g id="icon_step2" transform="translate(273.000000, 0.000000)">
                    <g id="Group-22" transform="translate(24.000000, 6.000000)" fill-rule="nonzero">
                        <path d="M43.3,61.3 L43.3,52.5 L17.1,52.5 L35.5,34.1 C40.5,29.2 42.2,24.6 42.2,18.6 C42.2,8.3 34.7,-5.68434189e-14 20.6,-5.68434189e-14 C7.8,-5.68434189e-14 0.4,8.2 0.4,8.2 L5.7,16.1 C7.5,14.6 12.5,9.5 19.8,9.5 C26.7,9.5 30.9,14 30.9,19.6 C30.9,23.4 29.7,26 25.5,30.2 L1.4,54.4 L1.4,61.3 L43.3,61.3 Z" id="2" fill="#FF8CFF"></path>
                        <g id="step-2" transform="translate(22.000000, 29.000000)" fill="#3B3B3B">
                            <path d="M55.9375098,71.8863674 L53.5651269,64.7734299 L53.5651269,26.0378049 C53.5651269,25.3658584 53.0200841,24.8211382 52.3477399,24.8211382 L48.6955789,24.8211382 L48.6955789,9.00447154 C48.6955789,4.30084643 44.8802798,0.487804878 40.1738699,0.487804878 C35.46746,0.487804878 31.652161,4.30084643 31.652161,9.00447154 L31.652161,10.2211382 L26.782613,10.2211382 L26.782613,1.70447154 C26.782613,1.0325251 26.2375703,0.487804878 25.565226,0.487804878 L18.2609041,0.487804878 C17.5885598,0.487804878 17.0435171,1.0325251 17.0435171,1.70447154 L17.0435171,7.61321321 L14.6848298,3.52947154 C14.5234141,3.24996897 14.2575009,3.04600813 13.9456004,2.96246745 C13.6336999,2.87892677 13.3013672,2.92265106 13.021727,3.08401946 L6.69587978,6.73401946 C6.41621173,6.89533965 6.21213013,7.16109546 6.12853999,7.47281143 C6.04494985,7.78452741 6.08870003,8.11666347 6.25016397,8.39613821 L11.2304942,17.0168299 C8.76067604,18.8515015 7.3047462,21.7456212 7.30442111,24.8211382 L3.65226013,24.8211382 C2.97991586,24.8211382 2.43487313,25.3658584 2.43487313,26.0378049 L2.43487313,64.7734299 L0.0624902296,71.8863674 C-0.0612716875,72.2574044 0.000988512948,72.6652812 0.229818265,72.9825607 C0.458648017,73.2998403 0.826144114,73.4878049 1.21748614,73.4878049 L54.7825139,73.4878049 C55.1738559,73.4878049 55.541352,73.2998403 55.7701817,72.9825607 C55.9990115,72.6652812 56.0612717,72.2574044 55.9375098,71.8863674 Z M51.1303529,63.7544715 L41.3912569,63.7544715 L41.3912569,27.2544715 L51.1303529,27.2544715 L51.1303529,63.7544715 Z M34.086935,9.00447154 C34.086935,5.64473932 36.8121486,2.92113821 40.1738699,2.92113821 C43.5355913,2.92113821 46.2608049,5.64473932 46.2608049,9.00447154 L46.2608049,24.8211382 L37.7390959,24.8211382 L37.7390959,21.1711382 C37.7392044,20.6435207 37.6703988,20.1181462 37.5344228,19.6083299 L41.9999504,17.0329507 C42.839016,16.5491196 43.4512868,15.7518586 43.701962,14.8166971 C43.9526372,13.8815357 43.8211643,12.8851459 43.3364892,12.0468986 C42.8524879,11.2082885 42.0548082,10.5963319 41.1191187,10.3457966 C40.1834291,10.0952613 39.1864677,10.2266943 38.3477894,10.7111507 L34.086935,13.1692736 L34.086935,9.00447154 Z M26.782613,17.5211382 L31.652161,17.5211382 C33.6682204,17.5234848 35.301974,19.1562717 35.304322,21.1711382 L35.304322,24.8211382 L26.782613,24.8211382 C26.7839623,22.4685028 25.9288857,20.1957201 24.3769041,18.4267945 C25.0425847,17.8436741 25.8974225,17.5218608 26.782613,17.5211382 Z M34.4483467,15.770507 L39.5651764,12.8182653 C40.1464233,12.4923372 40.8818548,12.6941124 41.2151229,13.2709496 C41.548391,13.8477868 41.3555861,14.5852168 40.7825634,14.9253799 L36.4444049,17.4274549 C35.9050823,16.7390185 35.2244608,16.1740277 34.4483467,15.770507 L34.4483467,15.770507 Z M31.652161,15.0878049 L26.782613,15.0878049 L26.782613,12.6544715 L31.652161,12.6544715 L31.652161,15.0878049 Z M8.96752391,8.23325696 L13.1847046,5.79992363 L17.2064947,12.7624507 C17.4819398,13.2394728 18.0436666,13.4720799 18.5759713,13.3295413 C19.108276,13.1870027 19.4783861,12.7048717 19.478291,12.1541174 L19.478291,2.92113821 L24.347839,2.92113821 L24.347839,15.5977403 C23.6823464,15.8883931 23.0742256,16.2956445 22.5521932,16.8002632 C19.847726,14.9391723 16.3855235,14.5695858 13.3487475,15.8178049 L8.96752391,8.23325696 Z M17.0435171,17.5211382 C21.0757401,17.5255805 24.3433941,20.791301 24.347839,24.8211382 L9.7391951,24.8211382 C9.74363998,20.791301 13.011294,17.5255805 17.0435171,17.5211382 Z M4.86964712,27.2544715 L38.9564829,27.2544715 L38.9564829,63.7544715 L4.86964712,63.7544715 L4.86964712,27.2544715 Z M36.8616643,71.0544715 L2.90661059,71.0544715 L4.52984398,66.1878049 L38.4847455,66.1878049 L36.8616643,71.0544715 Z M39.4282204,71.0544715 L41.0514538,66.1878049 L51.4703082,66.1878049 L53.0933894,71.0544715 L39.4282204,71.0544715 Z" id="Shape"></path>
                            <path d="M32.75,29.4878049 L27.75,29.4878049 C27.0596441,29.4878049 26.5,30.0314591 26.5,30.7020906 L26.5,39.2020906 L16.5,39.2020906 L16.5,30.7020906 C16.5,30.0314591 15.9403559,29.4878049 15.25,29.4878049 L10.25,29.4878049 C9.55964406,29.4878049 9,30.0314591 9,30.7020906 L9,42.8449477 C9.00241086,44.8558713 10.6799316,46.4854629 12.75,46.4878049 L30.25,46.4878049 C32.3200684,46.4854629 33.9975891,44.8558713 34,42.8449477 L34,30.7020906 C34,30.0314591 33.4403559,29.4878049 32.75,29.4878049 Z M31.5,42.8449477 C31.499225,43.5152671 30.9400347,44.0584806 30.25,44.0592334 L12.75,44.0592334 C12.0599653,44.0584806 11.500775,43.5152671 11.5,42.8449477 L11.5,31.9163763 L14,31.9163763 L14,40.4163763 C14,41.0870078 14.5596441,41.630662 15.25,41.630662 L27.75,41.630662 C28.4403559,41.630662 29,41.0870078 29,40.4163763 L29,31.9163763 L31.5,31.9163763 L31.5,42.8449477 Z" id="Shape"></path>
                        </g>
                    </g>
                    <rect id="Rectangle" x="0" y="0" width="128" height="114"></rect>
                </g>
            </g>
        </g>
    </g>
</svg>