<svg xmlns="http://www.w3.org/2000/svg" width="66" height="52" viewBox="0 0 66 52">
    <g fill="none" fill-rule="evenodd">
        <circle cx="44" cy="30" r="22" fill="#FF8CFF"/>
        <g fill="#3B3B3B" fill-rule="nonzero">
            <path d="M50.947 39.95c0-2.55-.884-5.026-2.513-7.002l2.215-14.715c.106-.734-.107-1.477-.597-2.04-.49-.564-1.192-.882-1.937-.893h-.575V7.65c0-1.413-1.14-2.55-2.556-2.55H23.967L17.834.51c-.447-.33-.98-.51-1.533-.51H5.803C4.387 0 3.247 1.137 3.247 2.55V15.3h-.585c-.746 0-1.448.33-1.938.892-.49.564-.703 1.307-.596 2.04l4.6 30.6c.18 1.254 1.266 2.179 2.533 2.168h32.602c.256 0 .511-.01.767-.021 1.522-.106 3.002-.52 4.354-1.222.224-.117.448-.244.66-.372 3.312-2.008 5.313-5.589 5.303-9.435zM5.803 1.7H16.31c.181 0 .362.064.512.17l6.356 4.76c.149.106.33.17.511.17h21.294c.469 0 .852.383.852.85v4.25H4.951V2.55c0-.467.373-.85.852-.85zM4.95 13.6h40.885v1.7H4.951v-1.7zm29.024 35.7H7.261c-.426 0-.777-.308-.84-.722l-4.6-30.6c-.043-.245.032-.5.191-.68.16-.181.394-.298.65-.298h45.453c.244 0 .49.106.65.297.159.192.233.436.201.68L46.943 31.44c-.106-.085-.223-.17-.33-.244-.106-.085-.191-.149-.287-.223-.234-.16-.469-.319-.703-.457-.064-.043-.128-.085-.202-.128-.309-.18-.628-.34-.958-.488-.075-.032-.16-.064-.235-.096-.255-.106-.51-.212-.766-.297-.117-.043-.234-.075-.352-.107-.223-.074-.457-.127-.692-.19-.127-.033-.255-.065-.383-.086-.245-.053-.49-.085-.735-.117-.117-.01-.223-.032-.34-.042-.362-.032-.724-.053-1.086-.053-6.112.01-11.063 4.95-11.073 11.05 0 .34.02.669.053 1.009.01.074.01.149.021.234.032.33.085.648.15.967.01.032.02.074.02.106.064.287.139.574.224.85l.064.202c.096.297.202.595.33.882.021.053.043.106.064.148.117.255.234.51.362.755.032.053.053.106.085.17.15.276.309.542.48.797.042.053.074.106.116.159.16.234.33.457.5.67.033.031.054.074.086.106.202.233.405.467.628.69l.15.149c.212.202.425.404.66.595l.053.042c.244.202.49.383.756.564l.18.127c.064.032.128.075.192.117zm10.786-1.37c-3.386 2.06-7.709 1.774-10.786-.723s-4.259-6.651-2.928-10.38c1.32-3.73 4.855-6.227 8.827-6.227.33 0 .66.021 1 .053 2.332.255 4.483 1.36 6.037 3.103 1.832 2.072 2.652 4.845 2.236 7.586-.425 2.73-2.023 5.142-4.386 6.587z"/>
            <path d="M46.688 39.1h-5.963v-5.95c0-.468-.383-.85-.851-.85-.469 0-.852.383-.852.85v5.95h-5.963c-.468 0-.851.383-.851.85 0 .467.383.85.851.85h5.963v5.95c0 .468.383.85.852.85.468 0 .851-.383.851-.85V40.8h5.963c.468 0 .852-.383.852-.85 0-.468-.384-.85-.852-.85z"/>
        </g>
    </g>
</svg>
