<?xml version="1.0" encoding="UTF-8"?>
<svg width="128px" height="114px" viewBox="0 0 128 114" version="1.1" xmlns="http://www.w3.org/2000/svg" xmlns:xlink="http://www.w3.org/1999/xlink">
    <title>icon_step1</title>
    <g id="Landing" stroke="none" stroke-width="1" fill="none" fill-rule="evenodd">
        <g id="Landing_SSU_una-sucursal_cuisine" transform="translate(-265.000000, -1832.000000)">
            <g id="Group-18" transform="translate(223.000000, 1832.000000)">
                <g id="icon_step1" transform="translate(42.000000, 0.000000)">
                    <g id="Group-23" transform="translate(27.000000, 6.000000)" fill-rule="nonzero">
                        <polygon id="1" fill="#FF8CFF" points="23.5 60 23.5 0 0.5 0 0.5 8.8 13.6 8.8 13.6 60"></polygon>
                        <g id="step-1" transform="translate(4.000000, 23.000000)" fill="#3B3B3B">
                            <path d="M58.6666493,22.5348837 L58.6666493,3.97674419 C58.6666493,1.78423256 56.8719768,0 54.6666364,0 L22.6665324,0 C20.4611919,0 18.6665194,1.78423256 18.6665194,3.97674419 L18.6665194,26.6574419 C16.9718473,24.934186 14.6105063,23.8604651 11.9998311,23.8604651 C11.2624954,23.8604651 10.6664934,24.453 10.6664934,25.1860465 L10.6664934,66.6621628 L9.77049054,66.3533023 C9.71049034,66.332093 9.64915681,66.3400465 9.58915662,66.3281163 C9.50382301,66.3108837 9.42115607,66.2936512 9.33582246,66.2936512 C9.2451555,66.2936512 9.16115523,66.3095581 9.07315494,66.3267907 C8.99315468,66.3440233 8.91715443,66.3572791 8.84115419,66.3877674 C8.75848725,66.420907 8.68915369,66.4659767 8.61582012,66.5136977 C8.54381989,66.560093 8.477153,66.6038372 8.41581947,66.6634884 C8.35181926,66.7244651 8.30515245,66.7947209 8.25448561,66.8676279 C8.21981884,66.918 8.17048534,66.9537907 8.14115191,67.0107907 L0.14112593,82.9177674 C-0.188208473,83.5726047 0.0784590603,84.3692791 0.737127866,84.6966977 C0.927795152,84.7921395 1.13179581,84.8372093 1.33179646,84.8372093 C1.82113139,84.8372093 2.29179958,84.5694419 2.52646701,84.1041628 L10.0024913,69.239093 L36.8612452,78.5261163 C36.8625785,78.5274419 36.8652452,78.5274419 36.8679119,78.5287674 L38.1292493,78.9648837 L36.1412429,82.9177674 C35.8119084,83.5726047 36.078576,84.3692791 36.7372448,84.6966977 C36.9279121,84.7921395 37.1319127,84.8372093 37.3319134,84.8372093 C37.8212483,84.8372093 38.2919165,84.5694419 38.5265839,84.1041628 L41.1932593,78.8018372 C41.2052593,78.7779767 41.2025926,78.7541163 41.2132593,78.7315814 C41.2265927,78.701093 41.2479261,78.675907 41.2599261,78.644093 C41.2799262,78.587093 41.2719262,78.5287674 41.2839262,78.4704419 C41.3039263,78.3816279 41.3212597,78.2941395 41.3199263,78.2053256 C41.3199263,78.1204884 41.3039263,78.0409535 41.2892596,77.9574419 C41.2719262,77.8739302 41.2572595,77.7930698 41.223926,77.7135349 C41.1905926,77.634 41.1465924,77.5677209 41.0999256,77.4961395 C41.0532588,77.4245581 41.0092587,77.3569535 40.9479251,77.2946512 C40.8865916,77.2323488 40.8145914,77.1846279 40.7425911,77.1342558 C40.6919243,77.1011163 40.6559242,77.0507442 40.5985907,77.022907 C40.5705906,77.0096512 40.5412571,77.0109767 40.5132571,76.9990465 C40.4865903,76.9884419 40.4692569,76.965907 40.4399235,76.9566279 L39.671921,76.6915116 L53.9253006,60.9767442 L54.6666364,60.9767442 C56.8719768,60.9767442 58.6666493,59.1925116 58.6666493,57 C61.6079922,57 64,54.621907 64,51.6976744 C64,50.1056512 63.2759976,48.6925814 62.155994,47.7209302 C63.2759976,46.7479535 64,45.3348837 64,43.7428605 C64,42.1521628 63.277331,40.7377674 62.1573273,39.7661163 C63.277331,38.7944651 64,37.3800698 64,35.7893721 C64,34.1986744 63.277331,32.7856047 62.1573273,31.8139535 C63.277331,30.8409767 64,29.427907 64,27.8372093 C64,24.9129767 61.6079922,22.5348837 58.6666493,22.5348837 L58.6666493,22.5348837 Z M36.9359121,75.7476977 L13.3331688,67.5847674 L13.3331688,26.6468372 C16.3718453,27.261907 18.6665194,29.9395814 18.6665194,33.1395349 L18.6665194,57 C18.6665194,59.1925116 20.4611919,60.9767442 22.6665324,60.9767442 L50.3359556,60.9767442 L36.9359121,75.7476977 Z M55.999974,57 C55.999974,57.7317209 55.4026387,58.3255814 54.6666364,58.3255814 L22.6665324,58.3255814 C21.93053,58.3255814 21.3331948,57.7317209 21.3331948,57 L21.3331948,3.97674419 C21.3331948,3.24502326 21.93053,2.65116279 22.6665324,2.65116279 L54.6666364,2.65116279 C55.4026387,2.65116279 55.999974,3.24502326 55.999974,3.97674419 L55.999974,22.7231163 C53.7052999,23.3156512 51.999961,25.3742791 51.999961,27.8372093 C51.999961,29.4292326 52.7239634,30.8423023 53.843967,31.8139535 C52.7239634,32.7869302 51.999961,34.2 51.999961,35.7920233 C51.999961,37.3827209 52.72263,38.7971163 53.8426337,39.7687674 C52.72263,40.7404186 51.999961,42.154814 51.999961,43.7455116 C51.999961,45.3362093 52.72263,46.7492791 53.8426337,47.7209302 C52.72263,48.693907 51.999961,50.1069767 51.999961,51.6976744 C51.999961,54.1606047 53.7052999,56.2192326 55.999974,56.8117674 L55.999974,57 Z M58.6666493,54.3488372 L57.3333117,54.3488372 C55.8626402,54.3488372 54.6666364,53.1597907 54.6666364,51.6976744 C54.6666364,50.2382093 55.8599736,49.0504884 57.326645,49.0465116 C57.3293117,49.0465116 57.330645,49.0478372 57.3333117,49.0478372 C57.3359784,49.0478372 57.3373117,49.0465116 57.3399784,49.0465116 L58.6666493,49.0465116 C60.1373208,49.0465116 61.3333247,50.2355581 61.3333247,51.6976744 C61.3333247,53.1597907 60.1373208,54.3488372 58.6666493,54.3488372 Z M58.6666493,46.3940233 C58.6639827,46.3940233 58.6626493,46.3953488 58.6599827,46.3953488 L57.3333117,46.3953488 C57.330645,46.3953488 57.3293117,46.3953488 57.326645,46.3953488 C55.8599736,46.3926977 54.6666364,45.2049767 54.6666364,43.7455116 C54.6666364,42.2833953 55.8626402,41.0943488 57.3333117,41.0943488 C57.338645,41.0943488 57.3413117,41.0916977 57.3466451,41.0916977 L58.6666493,41.0916977 C60.1373208,41.0916977 61.3333247,42.2807442 61.3333247,43.7428605 C61.3333247,45.2049767 60.1373208,46.3940233 58.6666493,46.3940233 L58.6666493,46.3940233 Z M58.6666493,38.4405349 L57.3333117,38.4405349 C57.330645,38.4405349 57.3279783,38.4418605 57.3239783,38.4418605 C55.8599736,38.4378837 54.6666364,37.2514884 54.6666364,35.7920233 C54.6666364,34.329907 55.8626402,33.1408605 57.3333117,33.1408605 L58.6666493,33.1408605 C58.669316,33.1408605 58.6719827,33.1395349 58.6759827,33.1395349 C60.1399875,33.1435116 61.3333247,34.329907 61.3333247,35.7893721 C61.3333247,37.2514884 60.1373208,38.4405349 58.6666493,38.4405349 Z M58.673316,30.4883721 C58.6706494,30.4883721 58.669316,30.4870465 58.6666493,30.4870465 C58.661316,30.4870465 58.6586493,30.4896977 58.653316,30.4896977 L57.3399784,30.4896977 C57.3373117,30.4896977 57.3359784,30.4883721 57.3333117,30.4883721 C55.8626402,30.4883721 54.6666364,29.2993256 54.6666364,27.8372093 C54.6666364,26.375093 55.8626402,25.1860465 57.3333117,25.1860465 L58.6666493,25.1860465 C60.1373208,25.1860465 61.3333247,26.375093 61.3333247,27.8372093 C61.3333247,29.2966744 60.1399875,30.4843953 58.673316,30.4883721 L58.673316,30.4883721 Z" id="Shape"></path>
                            <path d="M11.9092037,75.1627907 L11.8943571,75.1627907 C11.0748246,75.1627907 10.4186047,75.828093 10.4186047,76.6511628 C10.4186047,77.4742326 11.0896712,78.1395349 11.9106884,78.1395349 C12.730221,78.1395349 13.3953488,77.4742326 13.3953488,76.6511628 C13.3953488,75.828093 12.7287363,75.1627907 11.9092037,75.1627907 L11.9092037,75.1627907 Z" id="Path"></path>
                            <path d="M38.3255814,49.1162791 C36.0689612,49.1162791 34.2325581,50.9526822 34.2325581,53.2093023 C34.2325581,55.4659225 36.0689612,57.3023256 38.3255814,57.3023256 C40.5822016,57.3023256 42.4186047,55.4659225 42.4186047,53.2093023 C42.4186047,50.9526822 40.5822016,49.1162791 38.3255814,49.1162791 Z M38.3255814,54.5736434 C37.5724651,54.5736434 36.9612403,53.9624186 36.9612403,53.2093023 C36.9612403,52.456186 37.5724651,51.8449612 38.3255814,51.8449612 C39.0786977,51.8449612 39.6899225,52.456186 39.6899225,53.2093023 C39.6899225,53.9624186 39.0786977,54.5736434 38.3255814,54.5736434 Z" id="Shape"></path>
                            <path d="M34.979715,8.18604651 C35.7996565,8.18604651 36.4651163,7.52074419 36.4651163,6.69767442 C36.4651163,5.87460465 35.7996565,5.20930233 34.979715,5.20930233 L34.964861,5.20930233 C34.1449195,5.20930233 33.4883721,5.87460465 33.4883721,6.69767442 C33.4883721,7.52074419 34.1597735,8.18604651 34.979715,8.18604651 Z" id="Path"></path>
                            <path d="M38.5488372,8.18604651 L42.5674419,8.18604651 C43.3082047,8.18604651 43.9069767,7.52074419 43.9069767,6.69767442 C43.9069767,5.87460465 43.3082047,5.20930233 42.5674419,5.20930233 L38.5488372,5.20930233 C37.8080744,5.20930233 37.2093023,5.87460465 37.2093023,6.69767442 C37.2093023,7.52074419 37.8080744,8.18604651 38.5488372,8.18604651 Z" id="Path"></path>
                            <path d="M49.0380465,23.614642 C49.0110698,23.5256355 48.9786977,23.4433718 48.9355349,23.3624567 C48.9153023,23.326045 48.9126047,23.2855874 48.8896744,23.2505242 L46.192,19.2047712 C46.1663721,19.1683594 46.1286047,19.1481307 46.1016279,19.1157646 C46.0436279,19.0415925 45.9802326,18.9795576 45.9073953,18.9202199 C45.8399535,18.8662765 45.7725116,18.8190761 45.6969767,18.7799671 C45.6227907,18.7395096 45.5486047,18.7098407 45.4663256,18.6855662 C45.3773023,18.657246 45.2882791,18.6397144 45.1952093,18.6302743 C45.1520465,18.6262285 45.1142791,18.6046512 45.0697674,18.6046512 L31.5800465,18.6046512 C31.5355349,18.6046512 31.4977674,18.6262285 31.4546047,18.6302743 C31.360186,18.6397144 31.2711628,18.657246 31.1807907,18.6855662 C31.0998605,18.7111893 31.0270233,18.7395096 30.9528372,18.7786185 C30.8773023,18.8190761 30.8098605,18.8662765 30.7424186,18.9215685 C30.6695814,18.9795576 30.606186,19.0415925 30.548186,19.114416 C30.5198605,19.1481307 30.482093,19.1683594 30.457814,19.2047712 L27.7614884,23.2505242 C27.7372093,23.2855874 27.7345116,23.326045 27.7156279,23.3624567 C27.6724651,23.4433718 27.6387442,23.5242869 27.6131163,23.614642 C27.5874884,23.7049972 27.5672558,23.7886094 27.5591628,23.8789646 C27.5551163,23.9194221 27.5348837,23.9571824 27.5348837,23.9989886 L27.5348837,38.8374622 C27.5348837,39.5832293 28.137814,40.1860465 28.8837209,40.1860465 L47.7674419,40.1860465 C48.5133488,40.1860465 49.1162791,39.5832293 49.1162791,38.8374622 L49.1162791,23.9989886 C49.1162791,23.9571824 49.0960465,23.9207707 49.092,23.8803131 C49.083907,23.7886094 49.0663721,23.7036486 49.0380465,23.614642 L49.0380465,23.614642 Z M44.3467907,21.3018199 L45.2464651,22.6504042 L41.9944186,22.6504042 L41.5452558,21.3018199 L44.3467907,21.3018199 Z M37.9425116,21.3018199 L38.701907,21.3018199 L39.1510698,22.6504042 L37.4866047,22.6504042 L37.9425116,21.3018199 Z M36.9551628,25.3475729 L39.6757674,25.3475729 L39.6757674,26.6961573 L36.9551628,26.6961573 L36.9551628,25.3475729 Z M32.3016744,21.3018199 L35.0951163,21.3018199 L34.6392093,22.6504042 L31.4033488,22.6504042 L32.3016744,21.3018199 Z M46.4186047,37.4888778 L30.2325581,37.4888778 L30.2325581,25.3475729 L34.2574884,25.3475729 L34.2574884,28.0447416 C34.2574884,28.7905088 34.8604186,29.393326 35.6063256,29.393326 L41.0246047,29.393326 C41.7705116,29.393326 42.3734419,28.7905088 42.3734419,28.0447416 L42.3734419,25.3475729 L46.4186047,25.3475729 L46.4186047,37.4888778 Z" id="Shape"></path>
                        </g>
                    </g>
                    <rect id="Rectangle" x="0" y="0" width="128" height="114"></rect>
                </g>
            </g>
        </g>
    </g>
</svg>