<?xml version="1.0" encoding="UTF-8"?>
<svg width="128px" height="114px" viewBox="0 0 128 114" version="1.1" xmlns="http://www.w3.org/2000/svg" xmlns:xlink="http://www.w3.org/1999/xlink">
    <title>icon_step3</title>
    <g id="Landing" stroke="none" stroke-width="1" fill="none" fill-rule="evenodd">
        <g id="Landing_SSU_una-sucursal_cuisine" transform="translate(-747.000000, -1832.000000)">
            <g id="Group-18" transform="translate(223.000000, 1832.000000)">
                <g id="icon_step3" transform="translate(524.000000, 0.000000)">
                    <rect id="Rectangle-Copy-3" x="0" y="0" width="128" height="114"></rect>
                    <g id="Group-21" transform="translate(15.000000, 6.000000)" fill-rule="nonzero">
                        <path d="M20.5,61.2 C36.1,61.2 42.8,51.8 42.8,41.4 C42.8,31.2 37.3,25.2 26.1,24.3 L41.9,7.6 L41.9,0 L2,0 L2,8.8 L28.5,8.8 L12.6,25.9 L12.6,32.2 L20.6,32.2 C29.1,32.2 32.4,36 32.4,41.8 C32.4,47.3 28.7,52.1 20.1,52.1 C11.2,52.1 5.8,45.7 5.8,45.7 L0.4,52.9 C0.4,52.9 6.6,61.2 20.5,61.2 Z" id="3" fill="#FF8CFF"></path>
                        <g id="step-3" transform="translate(10.000000, 25.000000)" fill="#3B3B3B">
                            <path d="M81.4361034,24.9906238 L66.85216,24.9906238 C64.3354744,24.9906238 62.2879274,27.0317026 62.2879274,29.5407099 L62.2879274,46.2653053 L56.8329531,46.2653053 C57.1361379,45.1672799 57.2485094,43.8721086 57.1747708,42.3648968 L57.1747708,42.3647295 C57.0563524,35.9953119 55.8963557,30.6271877 53.7266949,26.4094715 C52.0419618,23.1348086 50.07588,21.1715506 48.3887953,19.9978801 C50.3689866,17.969353 51.513866,15.0836265 51.513866,11.7554096 C51.513866,5.76722989 46.7195154,0.895652174 40.8266448,0.895652174 C34.9337743,0.895652174 30.1394236,5.76722989 30.1394236,11.7554096 C30.1394236,12.4487672 30.7034649,13.0105826 31.3991942,13.0105826 L32.2551662,13.0105826 C32.1763886,13.4842013 32.1343962,13.9668572 32.1343962,14.4570441 C32.1343962,18.6771033 35.1608689,22.2041396 39.162236,22.9945639 C38.7428164,24.5462926 38.5343664,26.3760002 38.5352062,28.4545668 L35.3931706,31.1471641 L27.7480432,31.763203 L18.9291457,28.8585652 C18.1208769,28.5907949 17.2047718,28.2882145 16.4099406,28.8592346 C15.6266993,29.4223889 15.6266993,30.4082855 15.6266993,30.7321202 L15.6266993,37.2648776 C15.6266993,37.9582352 16.1907405,38.5200507 16.8864698,38.5200507 L18.3862686,38.5200507 L16.0859276,46.4400254 C15.8925949,47.1057692 16.2775807,47.8019718 16.945931,47.9945991 C17.6146172,48.1882304 18.312866,47.8036454 18.5063667,47.1379016 L21.0094468,38.5200507 L24.5908904,38.5200507 C20.1363418,52.0544982 22.6780548,61.0887319 26.5848551,70.2315799 L24.3202917,70.2315799 L14.8883058,59.7239404 L16.8827745,52.8589805 C17.0762752,52.1930693 16.6912894,51.497034 16.0229391,51.3044068 C15.3545889,51.1117795 14.6560041,51.4953604 14.4625034,52.1611042 L12.5548749,58.7276677 C6.65478162,58.6295968 1.377183,62.6826343 0.0322519932,68.5138337 C-0.123455643,69.1892842 0.299659282,69.8627263 0.977415821,70.0180331 L2.76578605,70.4280563 C2.30890927,75.1562096 5.43398001,79.6170947 10.1999438,80.7100994 C10.923724,80.8762843 11.653719,80.9582889 12.378675,80.9582889 C14.1665413,80.9582889 15.9229973,80.4588974 17.4765463,79.4887323 C19.2998542,78.350374 20.6583907,76.6768099 21.3935928,74.6989919 L22.8047037,75.0224918 C23.2251311,75.1193912 23.6238905,75.1684266 24.0223139,74.9547125 C24.3930224,74.755893 24.6394335,74.3969135 24.7318167,73.9917437 C24.8205045,73.5808837 24.8880282,73.1633295 24.9348917,72.741926 L51.2822362,72.741926 C52.1247708,77.9612703 56.5818388,81.8956522 61.9049572,81.8956522 C67.2280755,81.8956522 71.6853116,77.9612703 72.5278461,72.741926 L73.489303,72.741926 C73.489303,72.741926 73.6801162,72.7441016 73.7236203,72.7441016 C74.0839146,72.7441016 74.6042839,72.7042708 75.031598,72.2711524 C75.2454231,72.0544259 75.4963694,71.6666611 75.4770529,71.0506221 C75.4416113,69.871931 75.2640677,68.7330706 74.9610509,67.6506093 C75.9645001,61.5809271 74.999012,57.8841914 73.5677447,54.9911011 C74.4725958,54.4001656 75.0725826,53.3819692 75.0725826,52.2252017 L75.0725826,48.7754841 L81.4357674,48.7754841 C83.952453,48.7754841 86,46.7344053 86,44.225398 L86,29.5405425 C86,27.0317026 83.9529569,24.9906238 81.4361034,24.9906238 Z M16.13867,77.361967 C14.5259958,78.3689506 12.6178634,78.6891034 10.7654968,78.2641854 L10.7653288,78.2641854 C7.35588591,77.4822963 5.08124426,74.3672915 5.24703006,70.9990764 L18.9118449,74.1326578 C18.3464599,75.4589573 17.3898741,76.5807473 16.13867,77.361967 L16.13867,77.361967 Z M22.4422258,72.3637005 L2.84607542,67.8708504 C4.35830395,63.7448455 8.42786664,61.0135889 12.8762003,61.2485573 L22.4758196,71.9427992 C22.4674212,72.0838806 22.4563352,72.2241253 22.4422258,72.3637005 Z M41.4706395,50.4910546 C41.1049701,51.4520151 41.1049701,52.6367311 41.1049701,54.2766566 L41.1049701,59.0131777 L36.4920264,59.0131777 L36.4920264,52.515063 C36.4920264,45.1684514 40.5162374,43.8592222 42.3222444,43.6431651 L54.6728666,43.6431651 C54.6231476,45.310537 54.2455524,46.4957551 53.528659,47.2480221 C52.6931792,48.124635 51.2635916,48.5517286 49.1579272,48.5537368 L44.6360229,48.5584228 C43.0235167,48.5585902 41.9585906,49.2086025 41.4706395,50.4910546 L41.4706395,50.4910546 Z M41.1049701,61.5233565 L41.1049701,64.5203751 C41.0935482,64.5203751 41.0817904,64.5203751 41.0696966,64.5203751 L32.1214626,64.5203751 C32.2220763,63.5908776 32.5126633,62.8715797 32.9898644,62.3738617 C33.6997031,61.6338117 34.699457,61.5233565 35.2322559,61.5233565 L41.1049701,61.5233565 Z M54.6172687,41.1329863 L43.1605797,41.1329863 C42.7005115,39.6905414 42.2903302,38.1110316 41.9530476,36.4876744 L45.4362291,34.2350572 C47.3376428,33.0048202 48.3268146,31.2664892 48.1501108,29.4655669 C47.9935633,27.8691541 46.9042817,26.4431101 45.3750883,25.8327613 C43.9785907,25.2754644 42.4754325,25.4505192 41.1469625,26.2968406 C41.2564785,25.0962257 41.4603934,24.0244753 41.7553477,23.1147258 C42.2923458,23.0594982 42.8256487,22.9549005 43.3493773,22.8014346 C44.4154791,22.5547513 45.4006196,22.1616311 46.2900176,21.6403159 C48.7163356,23.0846017 54.0527236,27.7692423 54.6172687,41.1329863 L54.6172687,41.1329863 Z M32.7511799,10.5004039 C33.3452876,6.48987487 36.7402852,3.40616567 40.8266448,3.40616567 C45.3302405,3.40616567 48.994325,7.15176946 48.994325,11.7555769 C48.994325,15.5000092 47.1921813,18.5179474 44.2863106,19.8460878 L44.2863106,13.2417018 C44.2863106,12.0981555 43.8470706,10.6953741 41.7551797,10.5055919 C41.7172186,10.5020774 41.6790896,10.5004039 41.6409605,10.5004039 L32.7511799,10.5004039 Z M34.6541052,14.4572114 C34.6541052,13.9618365 34.7107109,13.4780091 34.8220746,13.01075 L41.5791478,13.01075 C41.6569176,13.0191178 41.7136912,13.0281551 41.7543398,13.0363555 C41.7608907,13.0828806 41.7666016,13.1498232 41.7666016,13.2417018 L41.7666016,20.5846317 C41.4664403,20.6286464 41.1644313,20.6509048 40.8625903,20.6510721 C40.8597348,20.6510721 40.8568793,20.6510721 40.8541918,20.6510721 C37.4350067,20.6478924 34.6541052,17.8706128 34.6541052,14.4572114 Z M33.0209387,33.8571664 L36.0047472,33.6166752 C36.2706428,33.595421 36.5227648,33.4904885 36.725168,33.3172746 L42.110267,28.7024216 L42.1111069,28.7015849 C42.631812,28.2545759 43.1876228,28.0252976 43.7288202,28.0252976 C43.9696883,28.0252976 44.2077009,28.0708185 44.4383229,28.1628646 C45.1039857,28.4284592 45.5766516,29.0356282 45.6428315,29.7094052 C45.7259764,30.5574001 45.1652945,31.4169426 44.064591,32.1292115 L38.0638841,36.0098719 L33.0212747,36.0098719 L33.0212747,33.8571664 L33.0209387,33.8571664 Z M27.6969806,34.2862682 L30.5013977,34.0603371 L30.5013977,36.0102066 L27.2426233,36.0102066 C26.8201803,36.0102066 26.717215,35.6604317 26.7051212,35.3670559 C26.6982345,35.2007037 26.7140236,34.3665993 27.6969806,34.2862682 Z M24.7153557,33.4196967 C24.3359128,34.0395849 24.1587051,34.7647402 24.1877638,35.4698128 C24.1953224,35.6523986 24.2186702,35.8282902 24.2512562,35.9996631 C24.2512562,36.0031776 24.2492406,36.0066921 24.2499125,36.0100392 L18.1465763,36.0100392 L18.1465763,31.2449002 L24.7202268,33.4099901 C24.7182112,33.4133372 24.7172034,33.416517 24.7153557,33.4196967 Z M27.249678,38.5203854 L38.4366082,38.5203854 C38.6799959,38.5203854 38.9183445,38.4500957 39.1224273,38.3180515 L39.6926834,37.949198 C39.9669774,39.1571765 40.2794005,40.3326879 40.6197065,41.4429304 C38.0504466,42.1985445 33.9723174,44.6404419 33.9723174,52.5148957 L33.9723174,59.1390297 C33.0884624,59.3167622 32.0428529,59.7274549 31.1682362,60.6393799 C30.2462522,61.6006751 29.7196681,62.9032101 29.5933551,64.5202077 L27.051978,64.5202077 C24.4911165,57.1669018 23.5172299,49.3419855 27.249678,38.5203854 L27.249678,38.5203854 Z M29.3261158,70.227396 C28.8605046,69.1604989 28.4116904,68.0976183 27.9890793,67.0307212 L41.0695286,67.0307212 C42.7648438,67.0307212 43.6243432,66.2617185 43.6243432,64.7453021 L43.6243432,60.2681834 L43.6243432,55.5316623 L53.5679639,55.5316623 C54.2638611,55.5316623 54.8277344,54.9698468 54.8277344,54.2764892 C54.8277344,53.5831316 54.2638611,53.0213162 53.5679639,53.0213162 L43.6334136,53.0213162 C43.6495386,52.3083779 43.6953943,51.7253081 43.8265784,51.3808887 C43.8902388,51.2133649 43.9453327,51.0687689 44.6371987,51.0687689 L49.1602788,51.064083 C51.9930827,51.0614053 54.0196336,50.3785911 55.3558302,48.9764791 C55.4176429,48.9115448 55.4760963,48.8434308 55.5347176,48.7756514 L63.5478659,48.7756514 L72.5535454,48.7756514 L72.5535454,52.2253691 C72.5535454,52.6568139 72.1885479,53.0213162 71.7565306,53.0213162 L59.2150952,53.0213162 C58.5191979,53.0213162 57.9553247,53.5831316 57.9553247,54.2764892 C57.9553247,54.9698468 58.5191979,55.5316623 59.2150952,55.5316623 L71.0162895,55.5316623 C72.0120121,57.3730849 72.9076249,59.6643615 72.8543786,63.284448 C70.3620486,59.835065 66.3272556,57.6170905 61.7480738,57.6170905 C58.0705517,57.6170905 54.6197883,59.0543474 52.0312118,61.6642706 C49.7342302,63.9799812 48.3546975,66.985535 48.0708292,70.2315799 L29.3261158,70.227396 Z M61.9051252,79.3856407 C57.9669145,79.3856407 54.6454876,76.5584889 53.841922,72.7422607 L69.9683283,72.7422607 C69.1645948,76.5581542 65.8431678,79.3856407 61.9051252,79.3856407 L61.9051252,79.3856407 Z M71.3994277,70.2319146 L52.4111586,70.2319146 L50.6012883,70.2319146 C51.2197516,64.5563567 55.982692,60.1274367 61.7480738,60.1274367 C66.8098317,60.1274367 71.0606334,63.4529759 72.4683849,68.1083291 C72.4729201,68.1230565 72.4774553,68.1377838 72.4824944,68.1523438 C72.6815381,68.8202633 72.8221285,69.5154618 72.8982186,70.2319146 L71.3994277,70.2319146 Z M83.4807949,44.2255654 C83.4807949,45.3503678 82.563514,46.2653053 81.4361034,46.2653053 L64.8074685,46.2653053 L64.8074685,39.7834242 L83.4807949,39.7834242 L83.4807949,44.2255654 Z M83.4807949,37.2730781 L64.8074685,37.2730781 L64.8074685,34.603576 L83.4807949,34.603576 L83.4807949,37.2730781 Z M83.4807949,32.0932298 L64.8074685,32.0932298 L64.8074685,29.5407099 C64.8074685,28.4159075 65.7247494,27.50097 66.85216,27.50097 L81.4361034,27.50097 C82.563514,27.50097 83.4807949,28.4160748 83.4807949,29.5407099 L83.4807949,32.0932298 Z" id="Shape"></path>
                        </g>
                    </g>
                </g>
            </g>
        </g>
    </g>
</svg>