<svg xmlns="http://www.w3.org/2000/svg" width="44" height="44" viewBox="0 0 44 44">
    <g fill="none" fill-rule="evenodd">
        <path d="M0 0H44V44H0z"/>
        <circle cx="22" cy="22" r="21" stroke="#FFF" stroke-width="2"/>
        <path fill="#FFF" d="M30.526 16.846c.89-.562 1.573-1.452 1.893-2.513-.833.521-1.754.898-2.736 1.102-.784-.884-1.904-1.435-3.144-1.435-2.38 0-4.307 2.035-4.307 4.544 0 .356.036.703.11 1.034-3.58-.19-6.754-1.996-8.88-4.747-.371.673-.583 1.453-.583 2.285 0 1.576.76 2.967 1.917 3.783-.707-.023-1.371-.23-1.953-.568v.056c0 2.202 1.484 4.04 3.458 4.455-.363.107-.742.16-1.137.16-.277 0-.548-.027-.81-.08.548 1.804 2.139 3.12 4.025 3.155-1.476 1.219-3.333 1.944-5.351 1.944-.348 0-.691-.02-1.028-.062C13.907 31.247 16.171 32 18.604 32c7.926 0 12.257-6.924 12.257-12.929 0-.197-.002-.394-.01-.587.841-.641 1.573-1.442 2.149-2.353-.773.361-1.604.606-2.474.715z"/>
    </g>
</svg>
